<?xml version="1.0" standalone="no"?>
<!DOCTYPE svg PUBLIC "-//W3C//DTD SVG 20010904//EN"
 "http://www.w3.org/TR/2001/REC-SVG-20010904/DTD/svg10.dtd">
<svg version="1.0" xmlns="http://www.w3.org/2000/svg"
 width="128.000000pt" height="128.000000pt" viewBox="0 0 128.000000 128.000000"
 preserveAspectRatio="xMidYMid meet">
<metadata>
Created by potrace 1.10, written by Peter Selinger 2001-2011
</metadata>
<g transform="translate(0.000000,128.000000) scale(0.100000,-0.100000)"
fill="#b30000" stroke="none">
<path d="M318 1273 c-15 -2 -41 -20 -58 -39 l-30 -35 0 -555 c0 -617 -2 -596
66 -629 47 -22 641 -22 688 0 68 33 66 12 66 629 l0 556 -34 38 -34 37 -319 1
c-175 1 -330 0 -345 -3z m635 -22 c8 -8 -79 -11 -313 -11 -204 0 -320 4 -314
9 14 15 115 19 378 16 155 -2 242 -7 249 -14z m51 -63 l32 -33 0 -538 -1 -538
-37 -35 -38 -34 -320 0 -320 0 -38 34 -37 35 0 538 -1 538 32 33 32 32 332 0
332 0 32 -32z"/>
<path d="M576 984 c-20 -20 -36 -41 -36 -46 0 -6 11 -23 24 -38 17 -21 25 -47
31 -95 4 -37 3 -71 -2 -75 -4 -4 -41 -19 -82 -34 l-74 -27 -42 41 c-23 22 -44
37 -48 34 -4 -4 -7 -26 -7 -49 0 -38 5 -45 70 -103 51 -46 69 -69 67 -85 -1
-17 3 -21 18 -19 11 2 39 6 63 9 l43 6 -3 -211 c-3 -230 6 -275 36 -186 12 37
16 88 16 227 l0 180 70 -7 c70 -7 70 -7 70 17 0 35 57 102 108 128 26 13 41
27 38 34 -10 26 -91 125 -103 125 -6 0 -45 -13 -85 -29 -40 -17 -77 -26 -82
-21 -12 11 11 74 34 95 29 26 24 56 -16 103 -56 65 -66 68 -108 26z m79 -56
c27 -31 27 -32 7 -47 -11 -9 -22 -27 -25 -41 -3 -21 -5 -19 -6 8 0 20 -10 42
-25 57 -17 17 -20 25 -11 29 15 5 28 -8 39 -38 3 -10 9 -16 13 -12 4 3 -3 20
-15 36 -12 16 -22 32 -22 35 0 14 21 2 45 -27z m193 -199 c23 -28 23 -31 8
-54 -9 -14 -20 -25 -23 -25 -4 0 -2 5 5 12 33 33 1 84 -58 91 -35 4 -35 4 5 5
33 1 44 -4 63 -29z m-42 -23 c4 -18 -6 -42 -42 -95 -43 -65 -50 -71 -82 -71
l-35 0 7 61 c3 34 6 70 6 81 0 23 51 47 102 48 31 0 39 -4 44 -24z m-179 -88
c-2 -18 -4 -4 -4 32 0 36 2 50 4 33 2 -18 2 -48 0 -65z m-28 0 l2 -78 -33 0
c-28 0 -37 6 -58 43 -14 23 -27 45 -28 50 -2 4 19 18 48 31 28 13 45 26 38 29
-7 3 -3 5 8 4 20 -1 21 -7 23 -79z m-151 -8 c7 -8 22 -28 34 -45 19 -27 18
-27 -13 5 -19 19 -50 50 -69 68 l-35 34 35 -23 c19 -13 41 -30 48 -39z m178
-98 c-5 -8 -76 -4 -76 4 0 2 18 4 41 4 22 0 38 -4 35 -8z"/>
<path d="M1022 600 c0 -19 2 -27 5 -17 2 9 2 25 0 35 -3 9 -5 1 -5 -18z"/>
<path d="M253 385 c0 -22 2 -30 4 -17 2 12 2 30 0 40 -3 9 -5 -1 -4 -23z"/>
<path d="M1022 250 c0 -19 2 -27 5 -17 2 9 2 25 0 35 -3 9 -5 1 -5 -18z"/>
<path d="M250 124 c0 -10 5 -26 10 -34 8 -11 9 -7 4 15 -8 37 -14 45 -14 19z"/>
</g>
</svg>
